<svg width="300" height="118" viewBox="0 0 300 118" fill="none" xmlns="http://www.w3.org/2000/svg">
<path d="M4.39856 0.53418H15.2215C18.2385 0.53418 20.6849 1.30967 22.5521 2.86064C24.4193 4.41161 25.3529 6.66913 25.3529 9.63321C25.3529 12.5973 24.4063 14.9237 22.5175 16.6126C20.6244 18.3014 18.1952 19.1458 15.2215 19.1458H11.1586V30.106H4.39856V0.53418ZM11.1586 13.7691H13.0604C14.5689 13.7691 15.8093 13.4676 16.7775 12.8558C17.7544 12.2354 18.2471 11.2359 18.2471 9.85724C18.2471 8.44413 17.7544 7.436 16.7775 6.82423C15.8093 6.21676 14.5689 5.91088 13.0604 5.91088H11.1586V13.7691Z" fill="#302D2D"/>
<path d="M28.3459 0.53418H38.9441C41.8011 0.53418 44.1308 1.29243 45.9289 2.80894C47.7269 4.32544 48.626 6.4968 48.626 9.32301C48.626 11.4944 48.077 13.3168 46.9835 14.7859C45.8986 16.2593 44.4161 17.2933 42.5402 17.8878L52.7581 30.106H44.1654L35.1059 18.422V30.106H28.3459V0.53418ZM35.1059 13.6485H35.9012C36.5236 13.6485 37.0466 13.6399 37.4745 13.614C37.9111 13.5925 38.3995 13.5106 38.9441 13.3728C39.4973 13.2263 39.9382 13.0195 40.2753 12.7524C40.6082 12.4896 40.8978 12.1105 41.1398 11.615C41.3818 11.1109 41.5029 10.5035 41.5029 9.78831C41.5029 9.06452 41.3818 8.45706 41.1398 7.96161C40.8978 7.45754 40.6082 7.07411 40.2753 6.80699C39.9382 6.54419 39.4973 6.3417 38.9441 6.20384C38.3995 6.05736 37.9111 5.97119 37.4745 5.94534C37.0466 5.9238 36.5236 5.91088 35.9012 5.91088H35.1059V13.6485Z" fill="#302D2D"/>
<path d="M52.7597 15.3029C52.7597 11.0291 54.2163 7.41019 57.1338 4.44612C60.06 1.48204 63.587 0 67.7148 0C71.8641 0 75.3825 1.47773 78.2784 4.42888C81.1829 7.38435 82.6352 11.0076 82.6352 15.3029C82.6352 19.6241 81.2045 23.2603 78.3475 26.2114C75.4992 29.1669 71.9549 30.6403 67.7148 30.6403C63.3795 30.6403 59.8007 29.1841 56.9782 26.2631C54.1644 23.3335 52.7597 19.6801 52.7597 15.3029ZM60.0557 15.3029C60.0557 16.8539 60.2891 18.2756 60.7645 19.5595C61.2486 20.8347 62.0872 21.9161 63.2887 22.7993C64.486 23.6868 65.9599 24.1262 67.7148 24.1262C70.239 24.1262 72.1408 23.2646 73.4201 21.5413C74.6995 19.818 75.3392 17.7414 75.3392 15.3029C75.3392 12.8903 74.6822 10.818 73.3683 9.0818C72.063 7.34988 70.1784 6.47961 67.7148 6.47961C65.2683 6.47961 63.3795 7.34988 62.0439 9.0818C60.717 10.818 60.0557 12.8903 60.0557 15.3029Z" fill="#302D2D"/>
<path d="M98.5401 0.53418V21.748C98.5401 24.6432 97.7362 26.849 96.1369 28.3655C94.5463 29.882 92.2642 30.6402 89.2905 30.6402C88.4952 30.6402 87.7085 30.5412 86.9391 30.3473C86.1784 30.162 85.5301 29.9337 85.0028 29.658C84.4841 29.3822 84.0087 29.1022 83.5851 28.8135C83.1701 28.5292 82.8676 28.2923 82.6687 28.107L82.3575 27.814L84.5014 22.1788C85.9191 23.523 87.2028 24.1951 88.3569 24.1951C89.3812 24.1951 90.2068 23.8591 90.8292 23.1784C91.4516 22.489 91.7628 21.4464 91.7628 20.0419V0.53418H98.5401Z" fill="#302D2D"/>
<path d="M119.467 0.53418V6.4451H109.249V12.3216H119.035V18.2497H109.249V24.1951H119.467V30.106H102.489V0.53418H119.467Z" fill="#302D2D"/>
<path d="M121.477 6.4451V0.53418H142.327V6.4451H135.273V30.106H128.513V6.4451H121.477Z" fill="#302D2D"/>
<path d="M143.443 15.3029C143.443 11.0291 144.9 7.41019 147.817 4.44612C150.743 1.48204 154.27 0 158.398 0C162.547 0 166.066 1.47773 168.962 4.42888C171.866 7.38435 173.319 11.0076 173.319 15.3029C173.319 19.6241 171.888 23.2603 169.031 26.2114C166.182 29.1669 162.638 30.6403 158.398 30.6403C154.063 30.6403 150.484 29.1841 147.662 26.2631C144.848 23.3335 143.443 19.6801 143.443 15.3029ZM150.739 15.3029C150.739 16.8539 150.972 18.2756 151.448 19.5595C151.932 20.8347 152.77 21.9161 153.972 22.7993C155.169 23.6868 156.643 24.1262 158.398 24.1262C160.922 24.1262 162.824 23.2646 164.103 21.5413C165.383 19.818 166.023 17.7414 166.023 15.3029C166.023 12.8903 165.366 10.818 164.052 9.0818C162.746 7.34988 160.862 6.47961 158.398 6.47961C155.952 6.47961 154.063 7.34988 152.727 9.0818C151.4 10.818 150.739 12.8903 150.739 15.3029Z" fill="#302D2D"/>
<path d="M187.235 0C188.834 0 190.403 0.236954 191.938 0.706553C193.481 1.16754 194.622 1.6199 195.361 2.06796L196.45 2.79175L193.719 8.16845C193.498 8.03058 193.191 7.84964 192.802 7.61699C192.422 7.38865 191.7 7.08277 190.641 6.70364C189.591 6.3159 188.61 6.11772 187.702 6.11772C186.569 6.11772 185.701 6.35898 185.091 6.84151C184.478 7.32403 184.175 7.97027 184.175 8.7716C184.175 9.18519 184.318 9.56432 184.607 9.90898C184.892 10.2536 185.385 10.6285 186.077 11.0291C186.777 11.4212 187.391 11.7357 187.909 11.9769C188.437 12.2096 189.258 12.5629 190.364 13.0454C192.275 13.864 193.913 14.9712 195.275 16.3714C196.632 17.7629 197.315 19.3441 197.315 21.1104C197.315 22.8122 197.003 24.2942 196.381 25.5566C195.767 26.8232 194.929 27.8141 193.857 28.5379C192.794 29.253 191.618 29.7786 190.33 30.1233C189.038 30.468 187.637 30.6403 186.129 30.6403C184.823 30.6403 183.553 30.5067 182.308 30.2439C181.063 29.9811 180.017 29.6537 179.178 29.2617C178.336 28.8739 177.579 28.4862 176.914 28.107C176.244 27.7193 175.755 27.3919 175.444 27.1248L174.977 26.7284L178.349 21.076C178.634 21.3172 179.031 21.6231 179.541 21.9893C180.047 22.3598 180.942 22.851 182.221 23.4714C183.501 24.0917 184.633 24.4019 185.627 24.4019C188.471 24.4019 189.898 23.4369 189.898 21.5068C189.898 21.0932 189.794 20.7141 189.586 20.3694C189.388 20.0248 189.033 19.6801 188.515 19.3354C187.996 18.9908 187.538 18.715 187.149 18.5083C186.755 18.3015 186.111 17.9913 185.212 17.5777C184.313 17.1641 183.643 16.8496 183.207 16.6299C181.409 15.7467 180.017 14.6438 179.04 13.3211C178.059 11.9899 177.571 10.5595 177.571 9.0301C177.571 6.37621 178.547 4.21347 180.51 2.53325C182.481 0.844418 184.72 0 187.235 0Z" fill="#302D2D"/>
<path d="M227.438 0.53418V6.4451H217.048V12.3216H226.643V18.2497H217.048V30.106H210.288V0.53418H227.438Z" fill="#302D2D"/>
<path d="M241.602 0C243.201 0 244.77 0.236954 246.305 0.706553C247.848 1.16754 248.989 1.6199 249.728 2.06796L250.817 2.79175L248.085 8.16845C247.865 8.03058 247.558 7.84964 247.169 7.61699C246.789 7.38865 246.067 7.08277 245.008 6.70364C243.958 6.3159 242.976 6.11772 242.069 6.11772C240.936 6.11772 240.068 6.35898 239.458 6.84151C238.844 7.32403 238.542 7.97027 238.542 8.7716C238.542 9.18519 238.684 9.56432 238.974 9.90898C239.259 10.2536 239.752 10.6285 240.444 11.0291C241.144 11.4212 241.758 11.7357 242.276 11.9769C242.804 12.2096 243.625 12.5629 244.731 13.0454C246.642 13.864 248.28 14.9712 249.641 16.3714C250.999 17.7629 251.681 19.3441 251.681 21.1104C251.681 22.8122 251.37 24.2942 250.748 25.5566C250.134 26.8232 249.296 27.8141 248.224 28.5379C247.16 29.253 245.985 29.7786 244.697 30.1233C243.404 30.468 242.004 30.6403 240.495 30.6403C239.19 30.6403 237.919 30.5067 236.675 30.2439C235.43 29.9811 234.384 29.6537 233.545 29.2617C232.702 28.8739 231.946 28.4862 231.28 28.107C230.61 27.7193 230.122 27.3919 229.811 27.1248L229.344 26.7284L232.715 21.076C233.001 21.3172 233.398 21.6231 233.908 21.9893C234.414 22.3598 235.309 22.851 236.588 23.4714C237.868 24.0917 239 24.4019 239.994 24.4019C242.838 24.4019 244.264 23.4369 244.264 21.5068C244.264 21.0932 244.161 20.7141 243.953 20.3694C243.754 20.0248 243.4 19.6801 242.881 19.3354C242.363 18.9908 241.905 18.715 241.516 18.5083C241.122 18.3015 240.478 17.9913 239.579 17.5777C238.68 17.1641 238.01 16.8496 237.574 16.6299C235.776 15.7467 234.384 14.6438 233.407 13.3211C232.426 11.9899 231.937 10.5595 231.937 9.0301C231.937 6.37621 232.914 4.21347 234.876 2.53325C236.847 0.844418 239.086 0 241.602 0Z" fill="#302D2D"/>
<path d="M264.105 30.106L251.674 0.53418H259.299L266.768 19.9558L274.254 0.53418H281.878L269.43 30.106H264.105Z" fill="#302D2D"/>
<path d="M295.943 0.53418V21.748C295.943 24.6432 295.139 26.849 293.54 28.3655C291.95 29.882 289.667 30.6402 286.694 30.6402C285.898 30.6402 285.112 30.5412 284.342 30.3473C283.582 30.162 282.933 29.9337 282.406 29.658C281.887 29.3822 281.412 29.1022 280.988 28.8135C280.573 28.5292 280.271 28.2923 280.072 28.107L279.761 27.814L281.905 22.1788C283.322 23.523 284.606 24.1951 285.76 24.1951C286.784 24.1951 287.61 23.8591 288.232 23.1784C288.855 22.489 289.166 21.4464 289.166 20.0419V0.53418H295.943Z" fill="#302D2D"/>
<mask id="mask0_474_1099" style="mask-type:luminance" maskUnits="userSpaceOnUse" x="0" y="42" width="76" height="76">
<path d="M0 42.5537H75.6916V118H0V42.5537Z" fill="white"/>
</mask>
<g mask="url(#mask0_474_1099)">
<mask id="mask1_474_1099" style="mask-type:luminance" maskUnits="userSpaceOnUse" x="0" y="42" width="76" height="76">
<path d="M5.80913 42.5537H69.8824C73.0896 42.5537 75.6916 45.1473 75.6916 48.344V112.21C75.6916 115.411 73.0896 118 69.8824 118H5.80913C2.602 118 0 115.411 0 112.21V48.344C0 45.1473 2.602 42.5537 5.80913 42.5537Z" fill="white"/>
</mask>
<g mask="url(#mask1_474_1099)">
<path d="M0 42.5537H75.6916V118H0V42.5537Z" fill="#C2420C"/>
</g>
</g>
<mask id="mask2_474_1099" style="mask-type:luminance" maskUnits="userSpaceOnUse" x="74" y="42" width="77" height="76">
<path d="M74.7233 42.5537H150.415V118H74.7233V42.5537Z" fill="white"/>
</mask>
<g mask="url(#mask2_474_1099)">
<mask id="mask3_474_1099" style="mask-type:luminance" maskUnits="userSpaceOnUse" x="74" y="42" width="77" height="76">
<path d="M80.5325 42.5537H144.606C147.813 42.5537 150.415 45.1473 150.415 48.344V112.21C150.415 115.411 147.813 118 144.606 118H80.5325C77.3253 118 74.7233 115.411 74.7233 112.21V48.344C74.7233 45.1473 77.3253 42.5537 80.5325 42.5537Z" fill="white"/>
</mask>
<g mask="url(#mask3_474_1099)">
<path d="M74.7233 42.5537H150.415V118H74.7233V42.5537Z" fill="#302D2D"/>
</g>
</g>
<mask id="mask4_474_1099" style="mask-type:luminance" maskUnits="userSpaceOnUse" x="149" y="42" width="77" height="76">
<path d="M149.447 42.5537H225.138V118H149.447V42.5537Z" fill="white"/>
</mask>
<g mask="url(#mask4_474_1099)">
<mask id="mask5_474_1099" style="mask-type:luminance" maskUnits="userSpaceOnUse" x="149" y="42" width="77" height="76">
<path d="M155.256 42.5537H219.329C222.536 42.5537 225.138 45.1473 225.138 48.344V112.21C225.138 115.411 222.536 118 219.329 118H155.256C152.049 118 149.447 115.411 149.447 112.21V48.344C149.447 45.1473 152.049 42.5537 155.256 42.5537Z" fill="white"/>
</mask>
<g mask="url(#mask5_474_1099)">
<path d="M149.447 42.5537H225.138V118H149.447V42.5537Z" fill="#B22020"/>
</g>
</g>
<mask id="mask6_474_1099" style="mask-type:luminance" maskUnits="userSpaceOnUse" x="224" y="42" width="76" height="76">
<path d="M224.308 42.5537H300V118H224.308V42.5537Z" fill="white"/>
</mask>
<g mask="url(#mask6_474_1099)">
<mask id="mask7_474_1099" style="mask-type:luminance" maskUnits="userSpaceOnUse" x="224" y="42" width="76" height="76">
<path d="M230.117 42.5537H294.191C297.398 42.5537 300 45.1473 300 48.344V112.21C300 115.411 297.398 118 294.191 118H230.117C226.91 118 224.308 115.411 224.308 112.21V48.344C224.308 45.1473 226.91 42.5537 230.117 42.5537Z" fill="white"/>
</mask>
<g mask="url(#mask7_474_1099)">
<path d="M224.308 42.5537H300V118H224.308V42.5537Z" fill="#477A11"/>
</g>
</g>
<mask id="mask8_474_1099" style="mask-type:luminance" maskUnits="userSpaceOnUse" x="35" y="60" width="32" height="33">
<path d="M35.4772 60.3472H66.1739V92.3316H35.4772V60.3472Z" fill="white"/>
</mask>
<g mask="url(#mask8_474_1099)">
<path fill-rule="evenodd" clip-rule="evenodd" d="M52.9176 91.5219H48.9022C48.2106 91.5219 47.6401 90.9489 47.6401 90.2638V88.3208C46.6071 87.9762 45.6864 87.6315 44.8868 87.1748L43.3913 88.5492C42.9331 89.0058 42.1292 89.0058 41.5587 88.5492L38.6887 85.6885C38.2305 85.2318 38.2305 84.3141 38.6887 83.8575L40.1798 82.4874C39.7217 81.5698 39.2635 80.6564 39.0344 79.7388H36.9684C36.2768 79.7388 35.7063 79.1701 35.7063 78.3688V74.3664C35.7063 73.6771 36.2768 73.1084 36.9684 73.1084H39.0344C39.2635 72.0787 39.7217 71.161 40.1798 70.3597L38.6887 68.8734C38.2305 68.4167 38.2305 67.6154 38.6887 67.0424L41.5587 64.298C42.1292 63.7293 42.9331 63.7293 43.3913 64.298L44.8868 65.6723C45.6864 65.2157 46.6071 64.7547 47.6401 64.5263V62.467C47.6401 61.782 48.2106 61.209 48.9022 61.209H52.9176C53.7215 61.209 54.2964 61.782 54.2964 62.467V64.5263C55.2127 64.7547 56.129 65.2157 57.0497 65.6723L58.4241 64.298C58.8866 63.7293 59.8029 63.7293 60.2611 64.298L63.1311 67.0424C63.3602 67.387 63.4769 67.6154 63.4769 67.96C63.4769 68.3004 63.3602 68.645 63.1311 68.9897L61.7523 70.3597C62.2148 71.161 62.5562 72.0787 62.7853 73.1084H64.8514C65.5386 73.1084 66.1135 73.6771 66.1135 74.3664V78.3688C66.1135 79.1701 65.5386 79.7388 64.8514 79.7388H62.7853C62.5562 80.6564 62.2148 81.5698 61.7523 82.4874L63.1311 83.8575C63.3602 84.0858 63.4769 84.4305 63.4769 84.7751C63.4769 85.1155 63.3602 85.4601 63.1311 85.6885L60.2611 88.5492C59.8029 89.0058 58.8866 89.0058 58.4241 88.5492L57.0497 87.1748C56.129 87.6315 55.2127 87.9762 54.2964 88.3208V90.2638C54.2964 90.9489 53.7215 91.5219 52.9176 91.5219ZM50.9682 82.7158C47.411 82.7158 44.6534 79.8551 44.6534 76.4257C44.6534 72.8757 47.411 70.1314 50.9682 70.1314C54.4088 70.1314 57.2787 72.8757 57.2787 76.4257C57.2787 79.8551 54.4088 82.7158 50.9682 82.7158Z" fill="white"/>
</g>
<path fill-rule="evenodd" clip-rule="evenodd" d="M45.3449 98.2686H26.9839C25.7218 98.2686 24.5721 97.1269 24.5721 95.8689C24.5721 89.2342 22.8518 87.0628 20.9025 84.6588C18.9488 82.2591 16.9995 79.8551 16.9995 73.5651C16.9995 63.04 25.6051 54.5786 36.1644 54.5786C40.867 54.5786 45.4573 56.2933 48.9021 59.3823C47.1818 59.3823 45.803 60.7523 45.803 62.467V63.1563C45.574 63.2684 45.4573 63.3847 45.2282 63.3847L44.77 62.928C43.5079 61.782 41.5586 61.782 40.2965 62.928L37.4265 65.7844C36.1644 67.0424 36.1644 68.9897 37.4265 70.2477L37.8846 70.7044C37.8846 70.9327 37.7679 71.0491 37.6556 71.2774H36.9683C35.2437 71.2774 33.8693 72.6474 33.8693 74.3664V78.3688C33.8693 80.0835 35.2437 81.5698 36.9683 81.5698H37.6556C37.7679 81.6861 37.8846 81.9145 37.8846 82.0265L37.4265 82.5995C36.1644 83.7455 36.1644 85.8048 37.4265 86.9465L40.2965 89.8072C41.5586 91.0652 43.5079 91.0652 44.77 89.8072L45.2282 89.3505C45.4573 89.4625 45.574 89.4625 45.803 89.5789V90.2639C45.803 91.6382 46.607 92.7799 47.8691 93.2366C47.7524 94.0379 47.7524 94.9556 47.7524 95.8689C47.7524 97.1269 46.607 98.2686 45.3449 98.2686Z" fill="white"/>
<path fill-rule="evenodd" clip-rule="evenodd" d="M43.1622 103.645H29.1623C27.6712 103.645 26.5258 102.387 26.5258 101.017V100.099C26.6381 100.099 26.8672 100.099 26.9839 100.099H45.3449C45.4573 100.099 45.6864 100.099 45.8031 100.099V101.017C45.8031 102.387 44.6534 103.645 43.1622 103.645Z" fill="white"/>
<mask id="mask9_474_1099" style="mask-type:luminance" maskUnits="userSpaceOnUse" x="29" y="104" width="14" height="6">
<path d="M29.9446 104.464H42.1161V109.035H29.9446V104.464Z" fill="white"/>
</mask>
<g mask="url(#mask9_474_1099)">
<path fill-rule="evenodd" clip-rule="evenodd" d="M39.2635 109.022H33.0654C31.5742 109.022 30.3121 107.881 30.3121 106.39V105.477H42.0168V106.39C42.0168 107.881 40.7547 109.022 39.2635 109.022Z" fill="white"/>
</g>
<path fill-rule="evenodd" clip-rule="evenodd" d="M18.4912 59.951C18.262 59.951 18.0329 59.951 17.8038 59.7227L15.3916 57.323C15.0501 56.9783 15.0501 56.4053 15.3916 56.065C15.7375 55.604 16.4248 55.604 16.7706 56.065L19.1785 58.3527C19.5243 58.8093 19.5243 59.3823 19.1785 59.7227C18.9494 59.951 18.7203 59.951 18.4912 59.951Z" fill="white"/>
<mask id="mask10_474_1099" style="mask-type:luminance" maskUnits="userSpaceOnUse" x="18" y="51" width="6" height="7">
<path d="M18.8797 51.1318H23.3064V57.0384H18.8797V51.1318Z" fill="white"/>
</mask>
<g mask="url(#mask10_474_1099)">
<path fill-rule="evenodd" clip-rule="evenodd" d="M21.8193 56.4051C21.3611 56.4051 21.0152 56.0648 20.9028 55.7201L19.9821 52.4027C19.8697 51.9461 20.2112 51.3731 20.6737 51.2611C21.132 51.1447 21.7069 51.4894 21.8193 51.9461L22.7401 55.2634C22.8525 55.7201 22.5066 56.1768 22.0484 56.2931C21.936 56.4051 21.8193 56.4051 21.8193 56.4051Z" fill="white"/>
</g>
<mask id="mask11_474_1099" style="mask-type:luminance" maskUnits="userSpaceOnUse" x="10" y="60" width="7" height="4">
<path d="M10.5723 60.3472H16.6676V63.6559H10.5723V60.3472Z" fill="white"/>
</mask>
<g mask="url(#mask11_474_1099)">
<path fill-rule="evenodd" clip-rule="evenodd" d="M14.8217 63.2684C14.8217 63.2684 14.705 63.2684 14.5882 63.2684L11.3763 62.355C10.8014 62.2387 10.5723 61.782 10.689 61.209C10.8014 60.7523 11.3763 60.412 11.8345 60.6403L15.0508 61.4417C15.6214 61.5537 15.8549 62.1267 15.7381 62.5834C15.6214 63.04 15.2799 63.2684 14.8217 63.2684Z" fill="white"/>
</g>
<mask id="mask12_474_1099" style="mask-type:luminance" maskUnits="userSpaceOnUse" x="82" y="77" width="31" height="25">
<path d="M82.3306 77.9937H112.932V101.155H82.3306V77.9937Z" fill="white"/>
</mask>
<g mask="url(#mask12_474_1099)">
<path d="M112.725 82.6467C111.523 80.82 110.019 79.282 108.208 78.1231C107.953 77.9593 107.624 77.9809 107.382 78.1618C105.113 79.8162 102.317 80.7942 99.2912 80.7942C96.2656 80.7942 93.4691 79.8162 91.1999 78.1618C90.9535 77.9809 90.6293 77.9593 90.37 78.1231C85.0061 81.5653 82.3349 88.3078 82.3349 96.0583C82.3349 99.3584 95.2239 100.625 105.109 99.8539C105.558 92.5514 108.26 86.4724 112.725 82.6467Z" fill="white"/>
</g>
<path d="M106.453 59.9848C106.924 60.4544 107.344 60.967 107.711 61.5142C108.083 62.0656 108.394 62.6473 108.649 63.2633C108.904 63.8751 109.094 64.5041 109.224 65.1547C109.353 65.8052 109.418 66.4644 109.418 67.1235C109.418 67.787 109.353 68.4462 109.224 69.0967C109.094 69.7429 108.904 70.3763 108.649 70.988C108.394 71.5998 108.083 72.1814 107.711 72.7329C107.344 73.2843 106.924 73.797 106.453 74.2623C105.982 74.7319 105.472 75.1498 104.919 75.5203C104.366 75.8865 103.782 76.1967 103.168 76.4509C102.55 76.7051 101.919 76.899 101.266 77.0282C100.614 77.1575 99.9568 77.2221 99.2912 77.2221C98.6256 77.2221 97.9686 77.1575 97.3159 77.0282C96.6632 76.899 96.0279 76.7051 95.4141 76.4509C94.8003 76.1967 94.2168 75.8865 93.6636 75.5203C93.1103 75.1498 92.6003 74.7319 92.1292 74.2623C91.6581 73.797 91.2388 73.2843 90.8671 72.7329C90.4997 72.1814 90.1885 71.5998 89.9335 70.988C89.6785 70.3763 89.4883 69.7429 89.3586 69.0967C89.2289 68.4462 89.1598 67.787 89.1598 67.1235C89.1598 66.4644 89.2289 65.8052 89.3586 65.1547C89.4883 64.5041 89.6785 63.8751 89.9335 63.2633C90.1885 62.6473 90.4997 62.0656 90.8671 61.5142C91.2388 60.967 91.6581 60.4544 92.1292 59.9848C92.6003 59.5195 93.1103 59.0973 93.6636 58.7311C94.2168 58.3605 94.8003 58.0504 95.4141 57.7962C96.0279 57.5463 96.6632 57.3524 97.3159 57.2232C97.9686 57.0939 98.6256 57.0293 99.2912 57.0293C99.9568 57.0293 100.614 57.0939 101.266 57.2232C101.919 57.3524 102.55 57.5463 103.168 57.7962C103.782 58.0504 104.366 58.3605 104.919 58.7311C105.472 59.0973 105.982 59.5195 106.453 59.9848Z" fill="white"/>
<path d="M134.47 84.146C134.215 83.9823 133.887 84.0081 133.64 84.1848C131.375 85.8435 128.575 86.8214 125.553 86.8214C122.528 86.8214 119.731 85.8435 117.462 84.1848C117.22 84.0081 116.892 83.9823 116.637 84.146C111.264 87.5883 108.593 94.3307 108.593 102.086C108.593 107.441 142.51 107.441 142.51 102.086C142.51 94.3307 139.838 87.5883 134.47 84.146Z" fill="white"/>
<path d="M135.68 73.1509C135.68 73.8143 135.616 74.4735 135.486 75.1197C135.356 75.7703 135.162 76.4036 134.911 77.0154C134.656 77.6271 134.345 78.2088 133.973 78.7602C133.606 79.3117 133.182 79.82 132.715 80.2896C132.244 80.7592 131.73 81.1771 131.181 81.5477C130.628 81.9139 130.044 82.2241 129.426 82.4782C128.812 82.7324 128.181 82.9263 127.529 83.0555C126.876 83.1848 126.219 83.2494 125.553 83.2494C124.888 83.2494 124.226 83.1848 123.578 83.0555C122.925 82.9263 122.29 82.7324 121.676 82.4782C121.062 82.2241 120.479 81.9139 119.926 81.5477C119.372 81.1771 118.858 80.7592 118.391 80.2896C117.92 79.82 117.501 79.3117 117.129 78.7602C116.762 78.2088 116.451 77.6271 116.196 77.0154C115.941 76.4036 115.746 75.7703 115.616 75.1197C115.487 74.4735 115.422 73.8143 115.422 73.1509C115.422 72.4874 115.487 71.8325 115.616 71.182C115.746 70.5315 115.941 69.9025 116.196 69.2907C116.451 68.6746 116.762 68.093 117.129 67.5415C117.501 66.9944 117.92 66.4817 118.391 66.0121C118.858 65.5468 119.372 65.1246 119.926 64.7584C120.479 64.3879 121.062 64.0777 121.676 63.8235C122.29 63.5736 122.925 63.3798 123.578 63.2505C124.226 63.1213 124.888 63.0566 125.553 63.0566C126.219 63.0566 126.876 63.1213 127.529 63.2505C128.181 63.3798 128.812 63.5736 129.426 63.8235C130.044 64.0777 130.628 64.3879 131.181 64.7584C131.73 65.1246 132.244 65.5468 132.715 66.0121C133.182 66.4817 133.606 66.9944 133.973 67.5415C134.345 68.093 134.656 68.6746 134.911 69.2907C135.162 69.9025 135.356 70.5315 135.486 71.182C135.616 71.8325 135.68 72.4874 135.68 73.1509Z" fill="white"/>
<mask id="mask13_474_1099" style="mask-type:luminance" maskUnits="userSpaceOnUse" x="158" y="57" width="58" height="17">
<path d="M158.761 57.5293H215.837V73.5818H158.761V57.5293Z" fill="white"/>
</mask>
<g mask="url(#mask13_474_1099)">
<path d="M213.913 63.2162H179.413C179.206 62.4019 178.868 61.6437 178.41 60.9457C177.948 60.2435 177.386 59.6317 176.72 59.119C176.059 58.6064 175.328 58.21 174.529 57.9386C173.734 57.6672 172.917 57.5293 172.074 57.5293C171.235 57.5293 170.414 57.6672 169.619 57.9386C168.823 58.21 168.093 58.6064 167.427 59.119C166.762 59.6317 166.2 60.2435 165.742 60.9457C165.279 61.6437 164.946 62.4019 164.739 63.2162H160.663C160.412 63.2162 160.17 63.2636 159.937 63.3584C159.703 63.4575 159.496 63.5953 159.319 63.772C159.142 63.9486 159.003 64.1554 158.908 64.388C158.809 64.6164 158.761 64.8619 158.761 65.1118C158.761 65.3617 158.809 65.603 158.908 65.8356C159.003 66.0683 159.142 66.275 159.319 66.4517C159.496 66.6283 159.703 66.7662 159.937 66.861C160.17 66.9601 160.412 67.0075 160.663 67.0075H164.739C164.946 67.8217 165.279 68.5757 165.742 69.2779C166.2 69.9801 166.762 70.5876 167.427 71.1046C168.093 71.6173 168.823 72.0136 169.619 72.2851C170.414 72.5565 171.235 72.69 172.074 72.69C172.917 72.69 173.734 72.5565 174.529 72.2851C175.328 72.0136 176.059 71.6173 176.72 71.1046C177.386 70.5876 177.948 69.9801 178.41 69.2779C178.868 68.5757 179.206 67.8217 179.413 67.0075H213.913C214.168 67.0075 214.41 66.9601 214.644 66.861C214.877 66.7662 215.08 66.6283 215.258 66.4517C215.439 66.275 215.573 66.0683 215.673 65.8356C215.768 65.603 215.815 65.3617 215.815 65.1118C215.815 64.8619 215.768 64.6164 215.673 64.388C215.573 64.1554 215.439 63.9486 215.258 63.772C215.08 63.5953 214.877 63.4575 214.644 63.3584C214.41 63.2636 214.168 63.2162 213.913 63.2162ZM172.074 68.9031C171.572 68.9031 171.084 68.8083 170.617 68.6144C170.155 68.4206 169.744 68.1491 169.385 67.7916C169.027 67.4383 168.754 67.0247 168.56 66.5637C168.37 66.0984 168.27 65.6159 168.27 65.1118C168.27 64.6078 168.37 64.1252 168.56 63.6599C168.754 63.1946 169.027 62.7854 169.385 62.4321C169.744 62.0745 170.155 61.8031 170.617 61.6092C171.084 61.4153 171.572 61.3206 172.074 61.3206C172.58 61.3206 173.064 61.4153 173.53 61.6092C173.997 61.8031 174.408 62.0745 174.762 62.4321C175.121 62.7854 175.398 63.1946 175.588 63.6599C175.782 64.1252 175.877 64.6078 175.877 65.1118C175.877 65.6159 175.782 66.0984 175.588 66.5637C175.398 67.0247 175.121 67.4383 174.762 67.7916C174.408 68.1491 173.997 68.4206 173.53 68.6144C173.064 68.8083 172.58 68.9031 172.074 68.9031Z" fill="white"/>
</g>
<mask id="mask14_474_1099" style="mask-type:luminance" maskUnits="userSpaceOnUse" x="158" y="86" width="58" height="18">
<path d="M158.761 86.8169H215.837V103.025H158.761V86.8169Z" fill="white"/>
</mask>
<g mask="url(#mask14_474_1099)">
<path d="M213.913 93.5463H188.922C188.715 92.732 188.377 91.9738 187.919 91.2758C187.457 90.5736 186.895 89.9618 186.229 89.4491C185.568 88.9364 184.837 88.5401 184.038 88.2687C183.243 87.9972 182.426 87.8594 181.583 87.8594C180.744 87.8594 179.923 87.9972 179.128 88.2687C178.332 88.5401 177.602 88.9364 176.936 89.4491C176.271 89.9618 175.709 90.5736 175.251 91.2758C174.788 91.9738 174.455 92.732 174.248 93.5463H160.663C160.412 93.5463 160.17 93.5937 159.937 93.6884C159.703 93.7875 159.496 93.9254 159.319 94.102C159.142 94.2787 159.003 94.4855 158.908 94.7181C158.809 94.9465 158.761 95.192 158.761 95.4419C158.761 95.6918 158.809 95.933 158.908 96.1657C159.003 96.3983 159.142 96.6051 159.319 96.7818C159.496 96.9584 159.703 97.0963 159.937 97.191C160.17 97.2901 160.412 97.3375 160.663 97.3375H174.248C174.455 98.1518 174.788 98.9057 175.251 99.608C175.709 100.31 176.271 100.918 176.936 101.435C177.602 101.947 178.332 102.344 179.128 102.615C179.923 102.887 180.744 103.02 181.583 103.02C182.426 103.02 183.243 102.887 184.038 102.615C184.837 102.344 185.568 101.947 186.229 101.435C186.895 100.918 187.457 100.31 187.919 99.608C188.377 98.9057 188.715 98.1518 188.922 97.3375H213.913C214.168 97.3375 214.41 97.2901 214.644 97.191C214.877 97.0963 215.08 96.9584 215.258 96.7818C215.439 96.6051 215.573 96.3983 215.673 96.1657C215.768 95.933 215.815 95.6918 215.815 95.4419C215.815 95.192 215.768 94.9465 215.673 94.7181C215.573 94.4855 215.439 94.2787 215.258 94.102C215.08 93.9254 214.877 93.7875 214.644 93.6884C214.41 93.5937 214.168 93.5463 213.913 93.5463ZM181.583 99.2332C181.081 99.2332 180.593 99.1384 180.126 98.9445C179.664 98.7506 179.253 98.4792 178.894 98.1216C178.536 97.7684 178.263 97.3548 178.069 96.8938C177.879 96.4285 177.779 95.946 177.779 95.4419C177.779 94.9378 177.879 94.4553 178.069 93.99C178.263 93.5247 178.536 93.1154 178.894 92.7622C179.253 92.4046 179.664 92.1332 180.126 91.9393C180.593 91.7454 181.081 91.6506 181.583 91.6506C182.089 91.6506 182.573 91.7454 183.039 91.9393C183.506 92.1332 183.917 92.4046 184.271 92.7622C184.63 93.1154 184.907 93.5247 185.097 93.99C185.291 94.4553 185.386 94.9378 185.386 95.4419C185.386 95.946 185.291 96.4285 185.097 96.8938C184.907 97.3548 184.63 97.7684 184.271 98.1216C183.917 98.4792 183.506 98.7506 183.039 98.9445C182.573 99.1384 182.089 99.2332 181.583 99.2332Z" fill="white"/>
</g>
<mask id="mask15_474_1099" style="mask-type:luminance" maskUnits="userSpaceOnUse" x="158" y="72" width="58" height="16">
<path d="M158.761 72.4795H215.837V87.9203H158.761V72.4795Z" fill="white"/>
</mask>
<g mask="url(#mask15_474_1099)">
<path d="M213.913 78.3817H211.744C211.536 77.5675 211.199 76.8092 210.741 76.1113C210.278 75.409 209.716 74.7973 209.051 74.2846C208.39 73.7719 207.659 73.3755 206.859 73.1041C206.064 72.8327 205.247 72.6948 204.404 72.6948C203.566 72.6948 202.745 72.8327 201.949 73.1041C201.154 73.3755 200.424 73.7719 199.758 74.2846C199.092 74.7973 198.53 75.409 198.072 76.1113C197.61 76.8092 197.277 77.5675 197.069 78.3817H160.663C160.412 78.3817 160.17 78.4291 159.937 78.5239C159.703 78.623 159.496 78.7608 159.319 78.9375C159.142 79.1141 159.003 79.3209 158.908 79.5536C158.809 79.7819 158.761 80.0275 158.761 80.2773C158.761 80.5272 158.809 80.7685 158.908 81.0011C159.003 81.2338 159.142 81.4406 159.319 81.6172C159.496 81.7939 159.703 81.9317 159.937 82.0265C160.17 82.1256 160.412 82.173 160.663 82.173H197.069C197.277 82.9872 197.61 83.7412 198.072 84.4434C198.53 85.1457 199.092 85.7531 199.758 86.2701C200.424 86.7828 201.154 87.1792 201.949 87.4506C202.745 87.722 203.566 87.8556 204.404 87.8556C205.247 87.8556 206.064 87.722 206.859 87.4506C207.659 87.1792 208.39 86.7828 209.051 86.2701C209.716 85.7531 210.278 85.1457 210.741 84.4434C211.199 83.7412 211.536 82.9872 211.744 82.173H213.913C214.168 82.173 214.41 82.1256 214.644 82.0265C214.877 81.9317 215.08 81.7939 215.258 81.6172C215.439 81.4406 215.573 81.2338 215.673 81.0011C215.768 80.7685 215.815 80.5272 215.815 80.2773C215.815 80.0275 215.768 79.7819 215.673 79.5536C215.573 79.3209 215.439 79.1141 215.258 78.9375C215.08 78.7608 214.877 78.623 214.644 78.5239C214.41 78.4291 214.168 78.3817 213.913 78.3817ZM204.404 84.0686C203.903 84.0686 203.415 83.9738 202.948 83.78C202.485 83.5861 202.075 83.3147 201.716 82.9571C201.357 82.6038 201.085 82.1902 200.89 81.7292C200.7 81.2639 200.601 80.7814 200.601 80.2773C200.601 79.7733 200.7 79.2908 200.89 78.8255C201.085 78.3602 201.357 77.9509 201.716 77.5976C202.075 77.24 202.485 76.9686 202.948 76.7747C203.415 76.5809 203.903 76.4861 204.404 76.4861C204.91 76.4861 205.394 76.5809 205.861 76.7747C206.328 76.9686 206.738 77.24 207.093 77.5976C207.452 77.9509 207.728 78.3602 207.918 78.8255C208.113 79.2908 208.208 79.7733 208.208 80.2773C208.208 80.7814 208.113 81.2639 207.918 81.7292C207.728 82.1902 207.452 82.6038 207.093 82.9571C206.738 83.3147 206.328 83.5861 205.861 83.78C205.394 83.9738 204.91 84.0686 204.404 84.0686Z" fill="white"/>
</g>
<mask id="mask16_474_1099" style="mask-type:luminance" maskUnits="userSpaceOnUse" x="230" y="79" width="41" height="20">
<path d="M230.852 79.0967H270.055V98.9491H230.852V79.0967Z" fill="white"/>
</mask>
<g mask="url(#mask16_474_1099)">
<path d="M269.714 83.4179C266.096 81.5395 261.294 80.0962 254.962 80.0962C236.648 80.0962 230.852 92.1119 230.852 92.1119V98.1219H254.962L269.714 83.4179Z" fill="white"/>
</g>
<mask id="mask17_474_1099" style="mask-type:luminance" maskUnits="userSpaceOnUse" x="242" y="49" width="26" height="26">
<path d="M242.393 49.9038H267.842V74.6849H242.393V49.9038Z" fill="white"/>
</mask>
<g mask="url(#mask17_474_1099)">
<path d="M267.021 62.0704C267.021 62.8588 266.943 63.6429 266.788 64.4141C266.632 65.1896 266.403 65.9392 266.101 66.6673C265.798 67.3997 265.426 68.089 264.985 68.7482C264.549 69.403 264.047 70.0105 263.49 70.5663C262.928 71.1263 262.319 71.6218 261.662 72.0612C261.005 72.5007 260.309 72.8712 259.578 73.1728C258.843 73.4743 258.091 73.7027 257.313 73.8578C256.54 74.0086 255.753 74.0861 254.962 74.0861C254.171 74.0861 253.389 74.0086 252.611 73.8578C251.837 73.7027 251.081 73.4743 250.35 73.1728C249.62 72.8712 248.924 72.5007 248.267 72.0612C247.606 71.6218 246.996 71.1263 246.439 70.5663C245.877 70.0105 245.38 69.403 244.939 68.7482C244.498 68.089 244.126 67.3997 243.824 66.6673C243.521 65.9392 243.292 65.1896 243.141 64.4141C242.985 63.6429 242.907 62.8588 242.907 62.0704C242.907 61.282 242.985 60.4979 243.141 59.7267C243.292 58.9512 243.521 58.2016 243.824 57.4735C244.126 56.7411 244.498 56.0518 244.939 55.3926C245.38 54.7378 245.877 54.1303 246.439 53.5745C246.996 53.0145 247.606 52.519 248.267 52.0796C248.924 51.6401 249.62 51.2696 250.35 50.968C251.081 50.6665 251.837 50.4381 252.611 50.283C253.389 50.1322 254.171 50.0547 254.962 50.0547C255.753 50.0547 256.54 50.1322 257.313 50.283C258.091 50.4381 258.843 50.6665 259.578 50.968C260.309 51.2696 261.005 51.6401 261.662 52.0796C262.319 52.519 262.928 53.0145 263.49 53.5745C264.047 54.1303 264.549 54.7378 264.985 55.3926C265.426 56.0518 265.798 56.7411 266.101 57.4735C266.403 58.2016 266.632 58.9512 266.788 59.7267C266.943 60.4979 267.021 61.282 267.021 62.0704Z" fill="white"/>
</g>
<mask id="mask18_474_1099" style="mask-type:luminance" maskUnits="userSpaceOnUse" x="257" y="76" width="35" height="35">
<path d="M257.884 76.8906H291.433V110.288H257.884V76.8906Z" fill="white"/>
</mask>
<g mask="url(#mask18_474_1099)">
<path d="M285.749 77.6406L290.577 82.4529C291.317 83.1853 291.317 84.3787 290.577 85.1111L287.375 88.3035L279.884 80.833L283.083 77.6406C283.822 76.9082 285.015 76.9082 285.749 77.6406ZM277.611 83.0992L257.979 102.667V110.138H265.469L285.101 90.5697L277.611 83.0992Z" fill="white"/>
</g>
</svg>
